<svg width="156" height="29" viewBox="0 0 156 29" fill="none" xmlns="http://www.w3.org/2000/svg">
<g clip-path="url(#clip0_442_914)">
<path d="M147.731 24.8891C147.73 24.0758 147.972 23.2805 148.425 22.6039C148.879 21.9272 149.525 21.3996 150.28 21.0877C151.035 20.7759 151.867 20.6938 152.669 20.8518C153.472 21.0099 154.209 21.4011 154.787 21.9758C155.366 22.5505 155.76 23.283 155.92 24.0805C156.08 24.8781 155.999 25.7049 155.686 26.4563C155.373 27.2078 154.843 27.8501 154.163 28.302C153.483 28.7539 152.683 28.9951 151.866 28.9951C150.769 28.9951 149.717 28.562 148.942 27.7911C148.167 27.0202 147.731 25.9745 147.731 24.8843" fill="#80C342"/>
<path d="M23.6993 13.7297C23.6993 18.4733 22.4202 22.1294 19.8621 24.6983C17.304 27.2672 13.6987 28.5516 9.04612 28.5516H0V0.119141H9.66486C14.1416 0.119141 17.6014 1.28594 20.0444 3.61955C22.4874 5.95316 23.7057 9.32322 23.6993 13.7297ZM15.8715 14.0016C15.8715 11.3977 15.3647 9.46628 14.351 8.20728C13.3374 6.94828 11.7993 6.31242 9.7368 6.2997H7.54003V22.2232H9.21879C11.5115 22.2232 13.1919 21.546 14.2599 20.1917C15.3279 18.8373 15.8635 16.7707 15.8667 13.992" fill="black"/>
<path d="M55.9029 0H48.7178V28.5469H55.9029V0Z" fill="black"/>
<path d="M79.4868 17.898C79.4868 21.3666 78.5707 24.069 76.7385 26.0052C74.9062 27.9414 72.3481 28.9111 69.0641 28.9143C65.9017 28.9143 63.3867 27.9223 61.5193 25.9384C59.6519 23.9546 58.7166 21.2728 58.7134 17.8932C58.7134 14.4373 59.6295 11.7508 61.4617 9.83369C63.294 7.91657 65.8649 6.96278 69.1745 6.97232C71.0673 6.93504 72.9366 7.39394 74.5944 8.30286C76.1603 9.18613 77.4248 10.5148 78.2254 12.118C79.1097 13.9188 79.5472 15.9041 79.5012 17.9075M66.0136 17.9075C66.0136 19.7293 66.2518 21.117 66.7283 22.0708C66.9374 22.5211 67.2779 22.8984 67.7057 23.1535C68.1334 23.4087 68.6285 23.53 69.1265 23.5015C69.6202 23.5342 70.1121 23.4143 70.5346 23.1582C70.957 22.902 71.2895 22.5222 71.4863 22.0708C71.9468 21.117 72.1754 19.7293 72.1722 17.9075C72.169 16.0858 71.9372 14.7203 71.4767 13.811C71.2384 13.3924 70.8925 13.0442 70.4746 12.802C70.0566 12.5598 69.5815 12.4321 69.0977 12.4321C68.6139 12.4321 68.1388 12.5598 67.7208 12.802C67.3029 13.0442 66.9571 13.3924 66.7187 13.811C66.2454 14.7139 66.0088 16.0762 66.0088 17.898" fill="black"/>
<path d="M89.5259 7.34424H82.3408V28.547H89.5259V7.34424Z" fill="black"/>
<path d="M89.5259 0H82.3408V4.77849H89.5259V0Z" fill="black"/>
<path d="M104.093 23.1341C105.283 23.0893 106.458 22.8426 107.565 22.4045V27.7409C106.677 28.1383 105.749 28.442 104.798 28.647C103.783 28.8414 102.751 28.9325 101.718 28.9189C99.3073 28.9189 97.5677 28.3164 96.4997 27.1114C95.4317 25.9065 94.8993 24.0577 94.9025 21.5651V12.8236H92.3892V7.34412H94.9073V1.9266L102.15 0.672363V7.3489H106.735V12.8284H102.15V21.0787C102.15 22.4522 102.799 23.1389 104.097 23.1389" fill="black"/>
<path d="M120.727 23.134C121.918 23.0891 123.092 22.8424 124.199 22.4044V27.7408C123.311 28.1384 122.384 28.4421 121.432 28.6469C120.417 28.8413 119.386 28.9324 118.352 28.9187C115.941 28.9187 114.202 28.3163 113.134 27.1113C112.066 25.9064 111.533 24.0576 111.537 21.565V12.8235H109.019V7.34401H111.537V1.84541L118.77 0.66748V7.34401H123.36V12.8235H118.77V21.0786C118.77 22.452 119.419 23.1388 120.717 23.1388" fill="black"/>
<path d="M143.404 9.46623C141.697 7.80027 139.275 6.96729 136.138 6.96729C132.841 6.96729 130.304 7.92108 128.526 9.82866C126.748 11.7362 125.859 14.4847 125.859 18.0742C125.859 21.5428 126.818 24.215 128.737 26.0908C130.655 27.9666 133.348 28.9061 136.814 28.9092C138.26 28.9279 139.705 28.8146 141.131 28.5706C142.342 28.3421 143.513 27.9355 144.603 27.3641L143.5 22.5952C141.666 23.3701 139.689 23.7519 137.697 23.7158C136.516 23.7811 135.352 23.4223 134.416 22.7048C134.013 22.3588 133.691 21.9303 133.471 21.4488C133.25 20.9672 133.138 20.444 133.14 19.915H145.985V16.6626C145.985 13.531 145.129 11.1322 143.419 9.46623M133.284 15.313C133.293 14.3679 133.65 13.4589 134.286 12.7568C134.569 12.4879 134.902 12.2773 135.266 12.1373C135.631 11.9973 136.02 11.9307 136.411 11.9413C136.823 11.9233 137.234 11.9965 137.614 12.1557C137.994 12.3149 138.333 12.556 138.608 12.8617C139.183 13.5483 139.486 14.4198 139.462 15.313H133.284Z" fill="black"/>
<path d="M43.3745 9.46623C41.6638 7.80027 39.24 6.96729 36.1031 6.96729C32.8063 6.96729 30.2706 7.92108 28.4959 9.82866C26.7212 11.7362 25.8323 14.4847 25.8291 18.0742C25.8291 21.5428 26.7884 24.215 28.707 26.0908C30.6256 27.9666 33.318 28.9061 36.7842 28.9092C38.2305 28.9279 39.6755 28.8145 41.101 28.5706C42.3123 28.3419 43.4827 27.9353 44.5737 27.3641L43.4657 22.6047C41.6319 23.3799 39.6543 23.7617 37.662 23.7254C36.4818 23.7902 35.3176 23.4314 34.3812 22.7144C33.9787 22.3684 33.6563 21.9399 33.4361 21.4583C33.2159 20.9768 33.103 20.4535 33.1053 19.9245H45.9502V16.6721C45.9502 13.5405 45.0965 11.1417 43.3889 9.47576M33.254 15.3225C33.2637 14.3774 33.6201 13.4684 34.2565 12.7663C34.5386 12.4972 34.8718 12.2865 35.2365 12.1465C35.6013 12.0065 35.9905 11.94 36.3813 11.9508C36.7932 11.9328 37.204 12.0061 37.5839 12.1652C37.9638 12.3244 38.3034 12.5656 38.5781 12.8713C39.1516 13.5587 39.4549 14.4296 39.4318 15.3225H33.254Z" fill="black"/>
</g>
<defs>
<clipPath id="clip0_442_914">
<rect width="156" height="29" fill="white"/>
</clipPath>
</defs>
</svg>