<svg width="38" height="41" viewBox="0 0 38 41" fill="none" xmlns="http://www.w3.org/2000/svg">
<path opacity="0.2" d="M36.1875 6.25V14.0625H1.8125V6.25C1.8125 5.8356 1.97712 5.43817 2.27015 5.14515C2.56317 4.85212 2.9606 4.6875 3.375 4.6875H34.625C35.0394 4.6875 35.4368 4.85212 35.7299 5.14515C36.0229 5.43817 36.1875 5.8356 36.1875 6.25Z" fill="white"/>
<path d="M34.625 3.125H29.9375V1.5625C29.9375 1.1481 29.7729 0.750671 29.4799 0.457646C29.1868 0.16462 28.7894 0 28.375 0C27.9606 0 27.5632 0.16462 27.2701 0.457646C26.9771 0.750671 26.8125 1.1481 26.8125 1.5625V3.125H11.1875V1.5625C11.1875 1.1481 11.0229 0.750671 10.7299 0.457646C10.4368 0.16462 10.0394 0 9.625 0C9.2106 0 8.81317 0.16462 8.52015 0.457646C8.22712 0.750671 8.0625 1.1481 8.0625 1.5625V3.125H3.375C2.5462 3.125 1.75134 3.45424 1.16529 4.04029C0.57924 4.62634 0.25 5.4212 0.25 6.25V37.5C0.25 38.3288 0.57924 39.1237 1.16529 39.7097C1.75134 40.2958 2.5462 40.625 3.375 40.625H34.625C35.4538 40.625 36.2487 40.2958 36.8347 39.7097C37.4208 39.1237 37.75 38.3288 37.75 37.5V6.25C37.75 5.4212 37.4208 4.62634 36.8347 4.04029C36.2487 3.45424 35.4538 3.125 34.625 3.125ZM8.0625 6.25V7.8125C8.0625 8.2269 8.22712 8.62433 8.52015 8.91735C8.81317 9.21038 9.2106 9.375 9.625 9.375C10.0394 9.375 10.4368 9.21038 10.7299 8.91735C11.0229 8.62433 11.1875 8.2269 11.1875 7.8125V6.25H26.8125V7.8125C26.8125 8.2269 26.9771 8.62433 27.2701 8.91735C27.5632 9.21038 27.9606 9.375 28.375 9.375C28.7894 9.375 29.1868 9.21038 29.4799 8.91735C29.7729 8.62433 29.9375 8.2269 29.9375 7.8125V6.25H34.625V12.5H3.375V6.25H8.0625ZM34.625 37.5H3.375V15.625H34.625V37.5ZM21.3438 22.6562C21.3438 23.1198 21.2063 23.5729 20.9488 23.9584C20.6912 24.3438 20.3252 24.6442 19.8969 24.8216C19.4686 24.999 18.9974 25.0454 18.5428 24.955C18.0881 24.8645 17.6705 24.6413 17.3427 24.3135C17.0149 23.9858 16.7917 23.5681 16.7013 23.1135C16.6108 22.6588 16.6573 22.1876 16.8347 21.7593C17.0121 21.3311 17.3125 20.965 17.6979 20.7075C18.0833 20.45 18.5364 20.3125 19 20.3125C19.6216 20.3125 20.2177 20.5594 20.6573 20.999C21.0968 21.4385 21.3438 22.0346 21.3438 22.6562ZM29.9375 22.6562C29.9375 23.1198 29.8 23.5729 29.5425 23.9584C29.285 24.3438 28.9189 24.6442 28.4907 24.8216C28.0624 24.999 27.5912 25.0454 27.1365 24.955C26.6819 24.8645 26.2642 24.6413 25.9365 24.3135C25.6087 23.9858 25.3855 23.5681 25.295 23.1135C25.2046 22.6588 25.251 22.1876 25.4284 21.7593C25.6058 21.3311 25.9062 20.965 26.2916 20.7075C26.6771 20.45 27.1302 20.3125 27.5938 20.3125C28.2154 20.3125 28.8115 20.5594 29.251 20.999C29.6906 21.4385 29.9375 22.0346 29.9375 22.6562ZM12.75 30.4688C12.75 30.9323 12.6125 31.3854 12.355 31.7709C12.0975 32.1563 11.7314 32.4567 11.3032 32.6341C10.8749 32.8115 10.4036 32.8579 9.94901 32.7675C9.49436 32.677 9.07675 32.4538 8.74897 32.126C8.42119 31.7983 8.19797 31.3806 8.10753 30.926C8.0171 30.4713 8.06351 30.0001 8.24091 29.5718C8.4183 29.1436 8.71871 28.7775 9.10413 28.52C9.48956 28.2625 9.9427 28.125 10.4062 28.125C11.0279 28.125 11.624 28.3719 12.0635 28.8115C12.5031 29.251 12.75 29.8471 12.75 30.4688ZM21.3438 30.4688C21.3438 30.9323 21.2063 31.3854 20.9488 31.7709C20.6912 32.1563 20.3252 32.4567 19.8969 32.6341C19.4686 32.8115 18.9974 32.8579 18.5428 32.7675C18.0881 32.677 17.6705 32.4538 17.3427 32.126C17.0149 31.7983 16.7917 31.3806 16.7013 30.926C16.6108 30.4713 16.6573 30.0001 16.8347 29.5718C17.0121 29.1436 17.3125 28.7775 17.6979 28.52C18.0833 28.2625 18.5364 28.125 19 28.125C19.6216 28.125 20.2177 28.3719 20.6573 28.8115C21.0968 29.251 21.3438 29.8471 21.3438 30.4688ZM29.9375 30.4688C29.9375 30.9323 29.8 31.3854 29.5425 31.7709C29.285 32.1563 28.9189 32.4567 28.4907 32.6341C28.0624 32.8115 27.5912 32.8579 27.1365 32.7675C26.6819 32.677 26.2642 32.4538 25.9365 32.126C25.6087 31.7983 25.3855 31.3806 25.295 30.926C25.2046 30.4713 25.251 30.0001 25.4284 29.5718C25.6058 29.1436 25.9062 28.7775 26.2916 28.52C26.6771 28.2625 27.1302 28.125 27.5938 28.125C28.2154 28.125 28.8115 28.3719 29.251 28.8115C29.6906 29.251 29.9375 29.8471 29.9375 30.4688Z" fill="white"/>
</svg>
