<svg width="38" height="43" viewBox="0 0 38 43" fill="none" xmlns="http://www.w3.org/2000/svg">
<path d="M4.41667 42.2917H33.5833C35.8812 42.2917 37.75 40.4229 37.75 38.125V6.875C37.75 4.57708 35.8812 2.70833 33.5833 2.70833H29.4167C29.4167 2.1558 29.1972 1.62589 28.8065 1.23519C28.4158 0.844493 27.8859 0.625 27.3333 0.625H10.6667C10.1141 0.625 9.58423 0.844493 9.19353 1.23519C8.80283 1.62589 8.58333 2.1558 8.58333 2.70833H4.41667C2.11875 2.70833 0.25 4.57708 0.25 6.875V38.125C0.25 40.4229 2.11875 42.2917 4.41667 42.2917ZM4.41667 6.875H8.58333V11.0417H29.4167V6.875H33.5833V38.125H4.41667V6.875Z" fill="#86BC25"/>
<path d="M16.9166 24.7624L13.1812 21.027L10.2354 23.9729L16.9166 30.6541L27.7645 19.8062L24.8187 16.8604L16.9166 24.7624Z" fill="#86BC25"/>
</svg>
